<svg width="18" height="18" viewBox="0 0 14 14" fill="none" xmlns="http://www.w3.org/2000/svg">
<circle cx="7" cy="7" r="6.5" fill="#0D28A6" stroke="#0D28A6"/>
<path d="M6.43168 6.08C6.73168 6.08 7.00501 6.06333 7.25168 6.03C7.49835 5.99 7.70835 5.92 7.88168 5.82C8.06168 5.71333 8.20168 5.57333 8.30168 5.4C8.40168 5.22667 8.45168 5.00333 8.45168 4.73C8.45168 4.51 8.41168 4.32333 8.33168 4.17C8.25168 4.01 8.14168 3.88 8.00168 3.78C7.86835 3.68 7.70835 3.60667 7.52168 3.56C7.34168 3.51333 7.15168 3.49 6.95168 3.49C6.72501 3.49 6.51835 3.52667 6.33168 3.6C6.15168 3.67333 5.99501 3.78 5.86168 3.92C5.72835 4.05333 5.62501 4.21333 5.55168 4.4C5.47835 4.58 5.44168 4.78 5.44168 5H4.80168C4.80168 4.68 4.85501 4.39333 4.96168 4.14C5.07501 3.88 5.24835 3.64 5.48168 3.42C5.70168 3.22 5.94835 3.09333 6.22168 3.04C6.50168 2.98 6.78835 2.95 7.08168 2.95C7.36168 2.95 7.62168 2.98667 7.86168 3.06C8.10835 3.12667 8.32168 3.23333 8.50168 3.38C8.68168 3.52 8.82501 3.7 8.93168 3.92C9.03835 4.14 9.09168 4.39667 9.09168 4.69C9.09168 5.05667 9.00835 5.37333 8.84168 5.64C8.68168 5.90667 8.43168 6.11333 8.09168 6.26C8.34501 6.34 8.55168 6.44667 8.71168 6.58C8.87835 6.70667 9.00835 6.85 9.10168 7.01C9.19501 7.16333 9.25835 7.32667 9.29168 7.5C9.32501 7.67333 9.34168 7.84 9.34168 8C9.34168 8.29333 9.29168 8.56667 9.19168 8.82C9.09168 9.07333 8.94501 9.29667 8.75168 9.49C8.55835 9.68333 8.31835 9.84 8.03168 9.96C7.75168 10.0733 7.43168 10.1333 7.07168 10.14C6.66501 10.14 6.31168 10.1033 6.01168 10.03C5.71168 9.95667 5.46168 9.83667 5.26168 9.67C5.06168 9.49667 4.90501 9.27333 4.79168 9C4.67835 8.72 4.60168 8.37333 4.56168 7.96H5.20168C5.20168 8.5 5.36168 8.91 5.68168 9.19C6.00835 9.46333 6.43168 9.6 6.95168 9.6C7.20501 9.6 7.44168 9.55667 7.66168 9.47C7.88168 9.38333 8.06835 9.26667 8.22168 9.12C8.38168 8.97333 8.50168 8.80333 8.58168 8.61C8.66835 8.41667 8.70835 8.21667 8.70168 8.01C8.68835 7.72333 8.62168 7.48667 8.50168 7.3C8.38168 7.10667 8.21835 6.95667 8.01168 6.85C7.81168 6.73667 7.57501 6.66333 7.30168 6.63C7.02835 6.59 6.73835 6.58 6.43168 6.6V6.08Z" fill="white"/>
</svg>
